<mxfile host="app.diagrams.net" modified="2024-07-01T13:25:20.339Z" agent="Mozilla/5.0 (Windows NT 10.0; Win64; x64) AppleWebKit/537.36 (KHTML, like Gecko) Chrome/126.0.0.0 Safari/537.36 Edg/126.0.0.0" etag="2OPe1SQN66LwT7VczDJi" version="24.6.4" type="google">
  <diagram name="Página-1" id="eMwAjHTKf20kchAZfL9H">
    <mxGraphModel grid="1" page="1" gridSize="10" guides="1" tooltips="1" connect="1" arrows="1" fold="1" pageScale="1" pageWidth="827" pageHeight="1169" math="0" shadow="0">
      <root>
        <mxCell id="0" />
        <mxCell id="1" parent="0" />
        <mxCell id="FPaxaNax_D5i3CHUMuNk-1" value="Cliente" style="shape=umlActor;verticalLabelPosition=bottom;verticalAlign=top;html=1;outlineConnect=0;" vertex="1" parent="1">
          <mxGeometry x="300" y="240" width="40" height="80" as="geometry" />
        </mxCell>
        <mxCell id="FPaxaNax_D5i3CHUMuNk-15" value="" style="endArrow=none;html=1;rounded=0;" edge="1" parent="1" source="FPaxaNax_D5i3CHUMuNk-1" target="FPaxaNax_D5i3CHUMuNk-16">
          <mxGeometry width="50" height="50" relative="1" as="geometry">
            <mxPoint x="320" y="230" as="sourcePoint" />
            <mxPoint x="460" y="100" as="targetPoint" />
          </mxGeometry>
        </mxCell>
        <mxCell id="FPaxaNax_D5i3CHUMuNk-16" value="Realiza Cadastro" style="ellipse;whiteSpace=wrap;html=1;align=center;" vertex="1" parent="1">
          <mxGeometry x="280" y="10" width="200" height="80" as="geometry" />
        </mxCell>
        <mxCell id="FPaxaNax_D5i3CHUMuNk-18" value="&lt;br&gt;Visualiza perfil dos trabalhadores" style="ellipse;whiteSpace=wrap;html=1;fontSize=11;" vertex="1" parent="1">
          <mxGeometry x="465" y="150" width="240" height="80" as="geometry" />
        </mxCell>
        <mxCell id="FPaxaNax_D5i3CHUMuNk-19" value="Procura profissionais" style="ellipse;whiteSpace=wrap;html=1;align=center;" vertex="1" parent="1">
          <mxGeometry x="414" y="70" width="231" height="80" as="geometry" />
        </mxCell>
        <mxCell id="FPaxaNax_D5i3CHUMuNk-20" value="" style="endArrow=none;html=1;rounded=0;" edge="1" parent="1" source="FPaxaNax_D5i3CHUMuNk-1" target="FPaxaNax_D5i3CHUMuNk-19">
          <mxGeometry width="50" height="50" relative="1" as="geometry">
            <mxPoint x="600" y="270" as="sourcePoint" />
            <mxPoint x="650" y="220" as="targetPoint" />
          </mxGeometry>
        </mxCell>
        <mxCell id="FPaxaNax_D5i3CHUMuNk-21" value="" style="endArrow=none;html=1;rounded=0;" edge="1" parent="1" source="FPaxaNax_D5i3CHUMuNk-1" target="FPaxaNax_D5i3CHUMuNk-18">
          <mxGeometry width="50" height="50" relative="1" as="geometry">
            <mxPoint x="600" y="270" as="sourcePoint" />
            <mxPoint x="440" y="230" as="targetPoint" />
          </mxGeometry>
        </mxCell>
        <mxCell id="FPaxaNax_D5i3CHUMuNk-26" value="Seleciona o trabalhador" style="ellipse;whiteSpace=wrap;html=1;align=center;fontSize=11;" vertex="1" parent="1">
          <mxGeometry x="490" y="235" width="215" height="90" as="geometry" />
        </mxCell>
        <mxCell id="FPaxaNax_D5i3CHUMuNk-27" value="" style="endArrow=none;html=1;rounded=0;" edge="1" parent="1" source="FPaxaNax_D5i3CHUMuNk-1" target="FPaxaNax_D5i3CHUMuNk-26">
          <mxGeometry width="50" height="50" relative="1" as="geometry">
            <mxPoint x="600" y="270" as="sourcePoint" />
            <mxPoint x="650" y="220" as="targetPoint" />
          </mxGeometry>
        </mxCell>
        <mxCell id="FPaxaNax_D5i3CHUMuNk-28" value="&lt;br&gt;Avalia Serviço" style="ellipse;whiteSpace=wrap;html=1;" vertex="1" parent="1">
          <mxGeometry x="480" y="330" width="210" height="70" as="geometry" />
        </mxCell>
        <mxCell id="FPaxaNax_D5i3CHUMuNk-29" value="" style="endArrow=none;html=1;rounded=0;" edge="1" parent="1" source="FPaxaNax_D5i3CHUMuNk-1" target="FPaxaNax_D5i3CHUMuNk-28">
          <mxGeometry width="50" height="50" relative="1" as="geometry">
            <mxPoint x="600" y="270" as="sourcePoint" />
            <mxPoint x="650" y="220" as="targetPoint" />
          </mxGeometry>
        </mxCell>
        <mxCell id="FPaxaNax_D5i3CHUMuNk-32" value="&#xa; acessa o histórico de serviços contratados anteriormente&#xa;&#xa;" style="ellipse;whiteSpace=wrap;html=1;" vertex="1" parent="1">
          <mxGeometry x="415" y="390" width="150" height="80" as="geometry" />
        </mxCell>
        <mxCell id="FPaxaNax_D5i3CHUMuNk-33" value="" style="endArrow=none;html=1;rounded=0;" edge="1" parent="1" source="FPaxaNax_D5i3CHUMuNk-32" target="FPaxaNax_D5i3CHUMuNk-1">
          <mxGeometry width="50" height="50" relative="1" as="geometry">
            <mxPoint x="380" y="340" as="sourcePoint" />
            <mxPoint x="430" y="290" as="targetPoint" />
          </mxGeometry>
        </mxCell>
        <mxCell id="FPaxaNax_D5i3CHUMuNk-50" value="Trabalhador" style="shape=umlActor;verticalLabelPosition=bottom;verticalAlign=top;html=1;outlineConnect=0;" vertex="1" parent="1">
          <mxGeometry x="268" y="810" width="40" height="80" as="geometry" />
        </mxCell>
        <mxCell id="FPaxaNax_D5i3CHUMuNk-51" value="" style="endArrow=none;html=1;rounded=0;" edge="1" parent="1" source="FPaxaNax_D5i3CHUMuNk-50" target="FPaxaNax_D5i3CHUMuNk-52">
          <mxGeometry width="50" height="50" relative="1" as="geometry">
            <mxPoint x="288" y="800" as="sourcePoint" />
            <mxPoint x="428" y="670" as="targetPoint" />
          </mxGeometry>
        </mxCell>
        <mxCell id="FPaxaNax_D5i3CHUMuNk-52" value="Realiza Cadastro" style="ellipse;whiteSpace=wrap;html=1;align=center;" vertex="1" parent="1">
          <mxGeometry x="340" y="670" width="200" height="80" as="geometry" />
        </mxCell>
        <mxCell id="FPaxaNax_D5i3CHUMuNk-53" value="Visualiza perfil do contratante" style="ellipse;whiteSpace=wrap;html=1;fontSize=11;" vertex="1" parent="1">
          <mxGeometry x="400" y="750" width="240" height="80" as="geometry" />
        </mxCell>
        <mxCell id="FPaxaNax_D5i3CHUMuNk-56" value="" style="endArrow=none;html=1;rounded=0;" edge="1" parent="1" source="FPaxaNax_D5i3CHUMuNk-50" target="FPaxaNax_D5i3CHUMuNk-53">
          <mxGeometry width="50" height="50" relative="1" as="geometry">
            <mxPoint x="568" y="840" as="sourcePoint" />
            <mxPoint x="408" y="800" as="targetPoint" />
          </mxGeometry>
        </mxCell>
        <mxCell id="FPaxaNax_D5i3CHUMuNk-62" value="Avalia Contratante" style="ellipse;whiteSpace=wrap;html=1;" vertex="1" parent="1">
          <mxGeometry x="415" y="850" width="210" height="70" as="geometry" />
        </mxCell>
        <mxCell id="FPaxaNax_D5i3CHUMuNk-63" value="" style="endArrow=none;html=1;rounded=0;" edge="1" parent="1" source="FPaxaNax_D5i3CHUMuNk-50" target="FPaxaNax_D5i3CHUMuNk-62">
          <mxGeometry width="50" height="50" relative="1" as="geometry">
            <mxPoint x="568" y="840" as="sourcePoint" />
            <mxPoint x="618" y="790" as="targetPoint" />
          </mxGeometry>
        </mxCell>
        <mxCell id="FPaxaNax_D5i3CHUMuNk-64" value="" style="endArrow=none;html=1;rounded=0;" edge="1" parent="1" source="FPaxaNax_D5i3CHUMuNk-65" target="FPaxaNax_D5i3CHUMuNk-50">
          <mxGeometry width="50" height="50" relative="1" as="geometry">
            <mxPoint x="200" y="980" as="sourcePoint" />
            <mxPoint x="398" y="860" as="targetPoint" />
          </mxGeometry>
        </mxCell>
        <mxCell id="FPaxaNax_D5i3CHUMuNk-65" value="Acessa histórico de contratação" style="ellipse;whiteSpace=wrap;html=1;" vertex="1" parent="1">
          <mxGeometry x="320" y="940" width="160" height="80" as="geometry" />
        </mxCell>
      </root>
    </mxGraphModel>
  </diagram>
</mxfile>
